<svg id="bd97b595-6bfc-4d68-abc6-5306dec48737" data-name="trazo" xmlns="http://www.w3.org/2000/svg" viewBox="0 0 1510.25 1809.68"><defs><style>.b6018ee4-ecf7-4bc0-8d77-c32fca26a136{fill:#004cff;}</style></defs><path class="b6018ee4-ecf7-4bc0-8d77-c32fca26a136" d="M709.2,1411.31l28.1-116.94,26.12-108.69L866.1,758.34a11.46,11.46,0,0,1,11.15-8.79h11.56A11.48,11.48,0,0,1,900,763.7l-101.4,422-20,83a20.79,20.79,0,0,0,20.21,25.65h412.56a326.75,326.75,0,1,0,0-653.5H1055.91a13.51,13.51,0,0,1-13.14-16.67l11.85-49.32h0l7.77-32.34a13.51,13.51,0,0,1,13.14-10.35h352.65a439.57,439.57,0,1,1,0,879.13H935.77a24,24,0,0,0-23.3,18.36L890.77,1520,796.7,1911.51a50.6,50.6,0,0,0,49.2,62.42h0a50.61,50.61,0,0,0,49.2-38.78l96-399.56a20.36,20.36,0,0,1,19.79-15.59h422a548.26,548.26,0,1,0,0-1096.51H998.09a20.79,20.79,0,0,0-20.21,15.93L955.6,532.18,929.48,640.87H801.63a20.79,20.79,0,0,0-20.21,15.93l-22.28,92.75-104.8,436.13-26.12,108.69-28.1,116.94L574,1520,472.36,1943a53,53,0,0,0,14.06,49.89h0c29.3,29.3,79.38,15.18,89.06-25.11L683.08,1520ZM911.46,1170.7l4.08-17h0l7.67-31.91h0l87.21-362.91a12.15,12.15,0,0,1,11.81-9.31h182.58c120.16,0,220.15,98.3,219.94,218.46s-97.76,217.67-218.07,217.67H923.27A12.14,12.14,0,0,1,911.46,1170.7Z" transform="translate(-470.89 -423.49)"/><rect class="b6018ee4-ecf7-4bc0-8d77-c32fca26a136" x="726.43" y="2228.36" width="3.55" height="5" transform="translate(-2082.01 1993.39) rotate(-76.47)"/></svg>